<svg xmlns="http://www.w3.org/2000/svg" viewBox="0 0 128 128" width="100%" height="100%">
  <defs>
    <linearGradient id="favFacetPrimary" x1="0%" y1="0%" x2="100%" y2="100%">
      <stop offset="0%" stop-color="#38bdf8" />
      <stop offset="50%" stop-color="#2563eb" />
      <stop offset="100%" stop-color="#1d4ed8" />
    </linearGradient>
    <linearGradient id="favFacetAccent" x1="0%" y1="100%" x2="100%" y2="0%">
      <stop offset="0%" stop-color="#06b6d4" />
      <stop offset="100%" stop-color="#3b82f6" />
    </linearGradient>
    <linearGradient id="favFacetDark" x1="0%" y1="0%" x2="100%" y2="100%">
      <stop offset="0%" stop-color="#1e293b" />
      <stop offset="100%" stop-color="#0f172a" />
    </linearGradient>
    <linearGradient id="favFacetLight" x1="0%" y1="0%" x2="100%" y2="100%">
      <stop offset="0%" stop-color="#93c5fd" stop-opacity="0.9" />
      <stop offset="100%" stop-color="#60a5fa" stop-opacity="0.3" />
    </linearGradient>
  </defs>

  <rect width="128" height="128" rx="28" fill="#0f172a" />
  
  <g transform="translate(2, 4)">
    <polygon points="60,12 110,47 100,107 50,117 15,77 25,27" fill="url(#favFacetDark)" stroke="#334155" stroke-width="1.5" />
    <polygon points="60,12 25,27 15,77 55,67" fill="url(#favFacetPrimary)" opacity="0.95" />
    <polygon points="60,12 55,67 75,57 90,30" fill="url(#favFacetLight)" opacity="0.85" />
    <polygon points="60,12 90,30 110,47 80,70 65,57" fill="url(#favFacetAccent)" opacity="0.9" />
    <polygon points="65,57 80,70 100,107 68,92 55,67" fill="url(#favFacetPrimary)" opacity="0.85" />
    <polygon points="55,67 68,92 50,117 15,77" fill="url(#favFacetAccent)" opacity="0.75" />

    <line x1="60" y1="12" x2="55" y2="67" stroke="#ffffff" stroke-width="2" stroke-linecap="round" opacity="0.8" />
    <line x1="55" y1="67" x2="100" y2="107" stroke="#93c5fd" stroke-width="1.5" opacity="0.6" />
    <line x1="55" y1="67" x2="50" y2="117" stroke="#ffffff" stroke-width="2" stroke-linecap="round" opacity="0.7" />
  </g>
</svg>
